<svg id="Layer_1" data-name="Layer 1" xmlns="http://www.w3.org/2000/svg" viewBox="0 0 280 300"><defs><style>.cls-1{fill:#ff4713;}.cls-2,.cls-3{fill:#fff;}.cls-3{stroke:#ff4713;stroke-miterlimit:30;stroke-width:1.95px;}</style></defs><rect class="cls-1" x="45.12" y="34.4" width="189.76" height="191.29"/><path class="cls-2" d="M140.05,60.25c0,31.33,32,35.85,32,63.24a32,32,0,0,1-63.91,0c0-27.39,32-31.91,32-63.24"/><path class="cls-2" d="M144.32,39.09v7.66a83.42,83.42,0,0,1,75.13,108.71H170.76a32.92,32.92,0,0,1-4.48,6.84h50.66a83.23,83.23,0,0,1-3.69,7.67H156.8a34.63,34.63,0,0,1-12.48,4v2.84h64.75a83.18,83.18,0,0,1-5.9,7.68H144.32v6.83h52.26a83.9,83.9,0,0,1-9.64,7.68H144.32v6.83h30.53a83,83,0,0,1-30.53,7.52V221a91.06,91.06,0,0,0,0-181.92"/><path class="cls-2" d="M135.78,174a34.58,34.58,0,0,1-12.47-4H66.76a83.23,83.23,0,0,1-3.69-7.67h50.76a32.92,32.92,0,0,1-4.48-6.84H60.56A83.43,83.43,0,0,1,135.78,46.74V39.08a91.06,91.06,0,0,0,0,181.93v-7.67a83,83,0,0,1-30.62-7.52h30.62V199H93.06a82.94,82.94,0,0,1-9.63-7.68h52.35v-6.83H76.84a83.28,83.28,0,0,1-5.91-7.68h64.85V174"/><path class="cls-3" d="M204.12,239.33h11l8.4,8.95h.09v-8.95h10.59v25.38H223.63l-8.87-9.09h-.06v9.09H204.12Zm-24.56,6h-.07l-4.35,10.31h8.77Zm-7.55-6h15l10.81,25.38H187.18l-1.07-2.92H172.93l-1.06,2.92H161.21Zm-35.84,19h5.53c4.4,0,5.15-2.27,5.15-6.29s-.75-6.29-5.15-6.29h-5.53Zm-9.62-19h18.73c8.27,0,12.63,3.34,12.63,12.69,0,8.92-4.33,12.69-12.42,12.69H126.55ZM102.39,259.2c3.93,0,6.42-2,6.42-7.18s-2.49-7.18-6.42-7.18S96,246.87,96,252,98.47,259.2,102.39,259.2Zm0-20.76c5.84,0,16.66.43,16.66,13.58s-10.82,13.58-16.66,13.58S85.74,265.17,85.74,252,96.56,238.44,102.39,238.44ZM78.51,254.83c-.61,3.34-1.71,6-4.09,7.89s-6,2.88-11.91,2.88S45.85,265.17,45.85,252s10.82-13.58,16.66-13.58,14.74.79,16,10.84H67.66a4.86,4.86,0,0,0-5.15-4.44c-3.93,0-6.42,2-6.42,7.18s2.42,7.18,5.94,7.18c3,0,4.84-1.32,5.63-4.37Z"/></svg>